<svg width="218" height="68" viewBox="0 0 218 68" fill="none" xmlns="http://www.w3.org/2000/svg">
<rect width="217.129" height="66.5394" transform="translate(0.436035 0.730286)" fill="white"/>
<path d="M79.0949 21.9049H85.0163L98.2786 43.7901H91.9922L82.0962 27.0925L76.8237 35.9277H85.3408L87.896 40.0615H74.5525L72.1597 43.7496H65.8732L79.0949 21.9049ZM183.409 43.8307H189.695L192.088 40.1426H205.431L202.876 36.0088H194.359L199.632 27.1736L209.528 43.8712H215.814L202.552 21.9859H196.63L183.409 43.8307ZM97.9136 32.888V35.8061C98.0353 41.5612 101.28 43.9928 106.309 43.8712H122.856V39.3726H106.35C103.592 39.4536 103.389 37.5489 103.308 35.644V32.8881V30.0106C103.389 28.3084 103.592 26.3631 106.35 26.4036H122.856V21.905H106.309C101.28 21.7834 98.0759 24.2556 97.9136 29.9701V32.888ZM160.737 26.6062H174.04C175.906 26.6062 176.838 27.4167 176.838 28.9974C176.838 30.6185 175.906 31.3886 174.04 31.3886H162.116L163.17 36.0899H173.35C175.338 36.0493 176.473 37.4273 176.635 39.3322L176.798 43.8308H182.07C182.07 43.8308 182.03 39.6158 181.908 38.7647C181.786 37.9136 181.421 35.563 179.353 34.4282C184.22 31.2265 182.435 21.9455 175.459 21.9455H155.383V43.8307H160.737L160.737 26.6062ZM138.958 43.8307H143.622C149.381 43.7091 151.814 40.4668 151.693 35.4413V21.9049H146.42V36.5355C146.501 39.2915 144.555 39.4941 142.689 39.5752H138.958H135.024C133.32 39.4942 131.374 39.2915 131.414 36.5355V21.9049H126.02V35.4819C125.898 40.5074 128.372 43.7091 134.091 43.8307H138.958ZM51.5298 31.6538C51.0837 23.467 48.2851 17.4689 44.4728 14.1861C40.3358 10.6601 32.6299 9.28215 26.6679 9.32271C20.706 9.28215 13.0001 10.6601 8.86314 14.1861C5.05076 17.469 2.25223 23.4671 1.80613 31.6538C1.40051 39.3541 3.06337 47.7435 7.44359 52.4853C11.6615 57.1461 20.0975 58.6051 26.6272 58.6051C33.157 58.6456 41.5929 57.1461 45.8109 52.4853C50.1912 47.7029 51.8945 39.3136 51.5298 31.6538ZM25.2483 11.3896C26.0594 11.349 26.2621 11.349 26.6272 11.349C26.9923 11.349 27.1545 11.349 28.0062 11.3896L28.0468 29.3031C27.8034 29.3031 25.4512 29.3031 25.2078 29.3031C25.2078 29.3031 25.2078 11.3896 25.2483 11.3896ZM5.09134 39.1918C4.84796 36.1117 3.91517 24.8854 8.37646 18.4819C10.2827 15.6855 13.0811 13.8211 15.9202 12.8485C19.8542 11.4706 24.5589 11.3895 24.5589 11.3895C22.7338 15.8882 18.962 25.5339 18.2319 27.6818C17.3397 30.3161 16.5691 31.8157 15.7985 36.5575C15.3117 40.4482 14.4601 50.1345 14.2167 54.3495C8.94421 51.8368 5.78074 47.0545 5.09134 39.1918ZM26.5867 56.5381C22.896 56.4976 18.3536 56.1329 14.744 54.5928C15.9607 51.3505 21.7604 37.4088 24.9645 31.978C25.2078 31.978 28.0062 31.978 28.2496 31.978C31.4131 37.4088 37.2533 51.3505 38.4702 54.5928C34.8198 56.1733 30.318 56.4976 26.5867 56.5381ZM48.1227 39.1516C47.4333 47.0547 44.2698 51.7964 38.9973 54.3497C38.754 50.1348 37.9023 40.4485 37.4156 36.5578C36.645 31.7754 35.8745 30.3164 34.9822 27.6821C34.2522 25.534 30.4803 15.8883 28.6552 11.3897C28.6552 11.3897 33.3599 11.4707 37.2939 12.8487C40.1329 13.8213 42.9314 15.7261 44.8376 18.4821C49.2989 24.8856 48.366 36.1118 48.1227 39.1516Z" fill="#5F5F5F"/>
</svg>
