<svg width="274" height="68" viewBox="0 0 274 68" fill="none" xmlns="http://www.w3.org/2000/svg">
<g clip-path="url(#clip0_12_591)">
<path d="M33.2413 9.7301C33.2967 9.73949 33.3522 9.75613 33.4077 9.75698C34.2253 9.76552 35.0424 9.77661 35.86 9.79411C36.9758 9.818 38.0908 9.85854 39.2054 9.89865C40.2342 9.93578 41.2626 9.99552 42.2897 10.0693C43.7268 10.1726 45.1627 10.2857 46.5964 10.435C48.3289 10.6155 50.0494 10.8558 51.7366 11.297C53.437 11.742 55.0385 12.4013 56.4249 13.512C57.7878 14.604 58.7248 15.9968 59.3278 17.6247C59.7899 18.8724 60.0335 20.1649 60.1428 21.4889C60.2533 22.8275 60.3135 24.1674 60.357 25.5094C60.4056 27.0089 60.4611 28.5083 60.4278 30.0078C60.3971 31.4065 60.3335 32.8044 60.232 34.2006C60.1637 35.1424 60.089 36.0837 60.002 37.0233C59.9068 38.0479 59.7826 39.0694 59.6789 40.0935C59.542 41.4504 59.3401 42.798 59.1093 44.1409C58.7432 46.2714 58.2836 48.373 57.4737 50.3943C56.3058 53.3079 54.2098 55.1909 51.283 56.2155C49.8151 56.7292 48.3007 57.042 46.7688 57.2775C45.365 57.4935 43.9513 57.6185 42.5337 57.7119C41.5344 57.7776 40.5355 57.8365 39.5348 57.8809C38.1574 57.9424 36.78 57.9825 35.4017 58.0149C34.6695 58.032 33.9372 58.0315 33.2054 58.049C31.9116 58.0798 30.6179 58.0926 29.3236 58.0721C27.8737 58.0495 26.4237 58.0294 24.9742 57.9919C23.8519 57.9633 22.7301 57.9202 21.6092 57.8643C20.4818 57.8079 19.3544 57.7422 18.2288 57.6548C15.9762 57.4798 13.7321 57.2387 11.5439 56.6379C10.0496 56.2274 8.60773 55.6953 7.32376 54.7984C5.64252 53.6245 4.56295 52.0115 3.82474 50.1246C3.15779 48.4203 2.75071 46.6533 2.42001 44.8633C2.16825 43.5021 1.96258 42.1332 1.79488 40.7592C1.6882 39.8857 1.61097 39.0088 1.52221 38.1332C1.43986 37.3212 1.35537 36.5096 1.28112 35.6967C1.22778 35.11 1.18468 34.522 1.14628 33.9344C1.00077 31.7069 0.942313 29.4761 0.948713 27.2444C0.952127 26.0582 0.946153 24.8698 1.01699 23.6844C1.11641 22.0117 1.20858 20.3377 1.65108 18.7081C2.10808 17.026 2.86421 15.5069 4.09015 14.2481C5.10359 13.2069 6.31843 12.4709 7.65958 11.9302C9.14538 11.3311 10.6995 10.9991 12.2732 10.7457C13.5981 10.5323 14.9337 10.4 16.2697 10.2835C17.3305 10.1909 18.3922 10.1103 19.4564 10.0527C20.9742 9.97077 22.4912 9.87902 24.0111 9.83678C25.2759 9.80179 26.5402 9.75784 27.8054 9.75741C27.8967 9.75741 27.9906 9.77277 28.0781 9.72968C29.799 9.7301 31.5203 9.7301 33.2413 9.7301ZM30.655 55.971C30.655 55.9705 30.655 55.9701 30.655 55.9692C31.8144 55.9692 32.9742 55.9944 34.1322 55.9633C35.7089 55.921 37.2869 55.898 38.8619 55.8058C39.7268 55.755 40.5935 55.7311 41.4571 55.665C42.8085 55.5613 44.1599 55.4525 45.5024 55.2537C46.7752 55.0655 48.0392 54.8432 49.2642 54.4331C51.6005 53.6514 53.3414 52.1976 54.3865 49.9433C54.939 48.7515 55.3308 47.5067 55.6295 46.2309C56.1594 43.9663 56.4552 41.6651 56.7039 39.3557C56.8674 37.8383 57.0026 36.3184 57.114 34.7968C57.201 33.6071 57.2672 32.414 57.2842 31.2213C57.3077 29.5939 57.3171 27.9656 57.268 26.3372C57.2224 24.8173 57.155 23.2999 56.9975 21.7872C56.875 20.6108 56.6664 19.4535 56.2516 18.3407C55.6354 16.6876 54.6122 15.3635 53.1029 14.4282C51.682 13.5479 50.11 13.0998 48.4829 12.8165C46.7334 12.5118 44.9698 12.3219 43.2015 12.1636C41.8433 12.0424 40.4825 11.9673 39.1226 11.882C38.1941 11.824 37.2639 11.7834 36.3341 11.7544C35.0766 11.7152 33.8186 11.6836 32.5611 11.6691C31.7508 11.6597 30.9405 11.6635 30.1297 11.684C28.7937 11.7177 27.4564 11.6981 26.1203 11.745C25.4312 11.7693 24.7416 11.7728 24.0525 11.7958C23.4065 11.8176 22.7604 11.8457 22.1152 11.8846C21.0523 11.9477 19.9894 12.0164 18.9273 12.0932C18.2407 12.1427 17.5546 12.2016 16.8697 12.2741C15.8746 12.3795 14.8808 12.4943 13.8913 12.6424C12.6047 12.8348 11.328 13.0636 10.094 13.4945C7.27 14.4811 5.47397 16.4026 4.74558 19.3153C4.36965 20.819 4.25572 22.3547 4.15757 23.8922C4.09186 24.9201 4.04364 25.9502 4.03255 26.9799C4.01206 28.8779 4.0078 30.7754 4.09613 32.673C4.14989 33.8294 4.22713 34.9837 4.31588 36.1379C4.41061 37.3694 4.52326 38.5987 4.65682 39.8268C4.83135 41.4291 5.04428 43.0259 5.34809 44.609C5.68391 46.3568 6.11233 48.0772 6.84158 49.7107C7.59045 51.3881 8.69179 52.7519 10.3146 53.659C11.4684 54.3042 12.714 54.6883 14.0022 54.9473C15.9548 55.3399 17.9339 55.5229 19.9164 55.6688C20.9222 55.7427 21.9292 55.7994 22.9367 55.8383C24.3926 55.8946 25.8489 55.9402 27.3053 55.9667C28.4216 55.9872 29.5387 55.971 30.655 55.971Z" fill="#5F5F5F"/>
<path d="M75.3146 23.2463C75.4815 23.2382 75.6483 23.2232 75.8152 23.2232C81.4789 23.222 87.1422 23.222 92.8059 23.2224C93.4054 23.2224 93.4063 23.2232 93.4067 23.8121C93.4076 24.52 93.3986 25.2279 93.4106 25.9358C93.4153 26.2205 93.3248 26.3459 93.0218 26.3749C92.191 26.4547 91.3658 26.5887 90.5345 26.6642C89.4558 26.7624 88.9062 27.2988 88.8678 28.4496C88.8302 29.568 88.8627 30.689 88.8541 31.8086C88.852 32.0856 89.0039 32.1214 89.2237 32.1201C89.9316 32.1159 90.6395 32.1189 91.3474 32.1189C94.9386 32.1189 98.5298 32.1193 102.121 32.1184C102.635 32.1184 102.637 32.1163 102.637 31.6081C102.638 30.5656 102.644 29.5228 102.633 28.4803C102.622 27.3312 102.077 26.773 100.927 26.6617C100.057 26.5776 99.192 26.453 98.3237 26.3574C98.1082 26.3335 98.0322 26.2166 98.0318 26.0267C98.0293 25.19 98.0305 24.3536 98.0314 23.5168C98.0318 23.3103 98.1347 23.2104 98.3446 23.222C98.4342 23.2271 98.5247 23.2211 98.6147 23.2211C104.252 23.2211 109.891 23.2211 115.528 23.2211C116.118 23.2211 116.118 23.222 116.119 23.8181C116.119 24.5132 116.111 25.2083 116.123 25.9034C116.127 26.1914 116.065 26.3425 115.73 26.3762C114.772 26.4722 113.815 26.59 112.864 26.7385C112.176 26.846 111.771 27.2787 111.655 27.9674C111.601 28.2832 111.562 28.6015 111.563 28.9262C111.568 32.6335 111.568 36.3403 111.563 40.0476C111.562 40.3723 111.6 40.691 111.656 41.006C111.797 41.8031 112.342 42.217 113.25 42.3036C114.106 42.3851 114.959 42.5114 115.814 42.6044C116.046 42.6296 116.12 42.741 116.119 42.956C116.115 43.78 116.115 44.6035 116.119 45.4275C116.12 45.6584 116.016 45.7574 115.791 45.7463C115.701 45.742 115.611 45.7471 115.521 45.7471C109.883 45.7471 104.245 45.7471 98.6074 45.7471C98.0284 45.7471 98.0271 45.7463 98.0258 45.1745C98.0246 44.4794 98.031 43.7843 98.0237 43.0892C98.0203 42.7922 98.0864 42.6257 98.4419 42.5925C99.3619 42.5063 100.281 42.3949 101.194 42.2473C102.047 42.109 102.523 41.5756 102.546 40.7192C102.578 39.5359 102.555 38.351 102.562 37.1668C102.563 36.9326 102.461 36.843 102.236 36.8494C101.979 36.8566 101.722 36.8498 101.464 36.8498C97.4477 36.8498 93.4319 36.8498 89.4157 36.8498C88.8558 36.8498 88.8554 36.8507 88.855 37.3913C88.8546 38.3565 88.8588 39.3222 88.8524 40.2874C88.8507 40.5737 88.8947 40.8532 88.96 41.1271C89.1307 41.8415 89.6474 42.214 90.4948 42.301C91.3508 42.3885 92.2025 42.5127 93.0585 42.5997C93.3269 42.627 93.4088 42.7461 93.4067 42.9949C93.3999 43.78 93.3956 44.5651 93.4084 45.3503C93.4135 45.6541 93.2928 45.7557 92.9966 45.751C92.1859 45.7382 91.3747 45.7471 90.564 45.7471C85.6726 45.7471 80.7812 45.7476 75.8903 45.7463C75.6978 45.7463 75.5049 45.7313 75.3125 45.7232C75.3125 44.6932 75.3125 43.6635 75.3125 42.6334C76.3823 42.5037 77.4533 42.3847 78.5209 42.24C79.2489 42.141 79.6453 41.687 79.7844 40.9765C79.8343 40.7213 79.8476 40.4679 79.8476 40.2106C79.8476 37.4468 79.848 34.683 79.8476 31.9196C79.8476 30.7628 79.8591 29.6055 79.8412 28.4492C79.8245 27.3747 79.315 26.8021 78.2952 26.6779C77.3018 26.5571 76.3067 26.4492 75.3125 26.3357C75.3146 25.306 75.3146 24.2759 75.3146 23.2463Z" fill="#5F5F5F"/>
<path d="M132.705 46.4184C132.016 46.3488 131.326 46.2903 130.639 46.2076C127.653 45.8474 124.76 45.1724 122.157 43.5841C119.21 41.7856 117.41 39.1976 117.034 35.7387C116.661 32.316 117.569 29.2834 120.096 26.8464C121.636 25.3611 123.502 24.4176 125.52 23.763C127.497 23.1213 129.531 22.7829 131.6 22.5896C133.438 22.4181 135.278 22.4031 137.114 22.4676C140.445 22.5845 143.725 23.0368 146.812 24.3967C149.307 25.4955 151.368 27.1029 152.611 29.5962C153.516 31.4101 153.845 33.338 153.679 35.3614C153.303 39.9319 150.698 42.802 146.661 44.5664C144.523 45.5014 142.261 45.9729 139.947 46.2152C139.284 46.2848 138.62 46.3509 137.957 46.4188C136.206 46.4184 134.456 46.4184 132.705 46.4184ZM143.264 34.4282C143.292 33.7523 143.22 33.0111 143.106 32.2738C142.704 29.6747 141.344 27.8842 138.727 27.2284C136.549 26.6826 134.348 26.6813 132.159 27.1853C129.653 27.7622 128.16 29.3487 127.653 31.8535C127.29 33.6499 127.299 35.454 127.681 37.2501C128.188 39.6303 129.607 41.1621 131.977 41.7446C134.236 42.2998 136.515 42.301 138.77 41.7271C141.033 41.151 142.43 39.6883 142.96 37.4058C143.183 36.4491 143.281 35.4809 143.264 34.4282Z" fill="#5F5F5F"/>
<path d="M273.052 45.646C272.898 45.6541 272.744 45.6699 272.591 45.6699C266.502 45.6712 260.414 45.6712 254.325 45.6708C253.719 45.6708 253.719 45.6699 253.719 45.0533C253.718 44.3454 253.726 43.6375 253.715 42.9296C253.711 42.6539 253.813 42.5511 254.092 42.5234C254.922 42.4414 255.75 42.3279 256.578 42.2268C256.798 42.1999 257.007 42.1376 257.204 42.039C257.766 41.7566 257.942 41.2991 257.673 40.7273C257.382 40.1073 256.947 39.5752 256.575 39.0043C256.444 38.8046 256.229 38.8643 256.043 38.8639C252.903 38.8609 249.762 38.8618 246.621 38.8618C245.45 38.8618 244.279 38.8686 243.107 38.8571C242.833 38.8545 242.651 38.9334 242.51 39.1784C242.208 39.702 241.874 40.2072 241.566 40.7278C241.2 41.3461 241.377 41.8756 242.036 42.1799C242.579 42.4308 243.174 42.3497 243.741 42.4483C244.006 42.4943 244.277 42.5007 244.546 42.5263C245.114 42.5805 245.114 42.581 245.114 43.163C245.114 43.8193 245.115 44.476 245.114 45.1323C245.113 45.6682 245.111 45.6703 244.582 45.6703C241.133 45.6712 237.683 45.6708 234.233 45.6708C233.204 45.6708 232.174 45.6601 231.144 45.6767C230.809 45.6823 230.689 45.5726 230.697 45.2334C230.716 44.4743 230.711 43.7147 230.699 42.9552C230.695 42.668 230.788 42.5498 231.091 42.5212C231.947 42.4402 232.8 42.3245 233.654 42.2187C234.391 42.1274 234.89 41.6994 235.268 41.0875C236.605 38.9185 237.946 36.7521 239.286 34.5853C240.485 32.648 241.684 30.7116 242.881 28.7735C243.042 28.5119 243.213 28.2555 243.224 27.9265C243.244 27.2932 242.832 26.814 242.2 26.7479C240.986 26.6212 239.774 26.4812 238.559 26.3681C238.273 26.3417 238.186 26.2294 238.189 25.9589C238.2 25.1998 238.207 24.4398 238.186 23.6807C238.176 23.3282 238.294 23.2135 238.649 23.2152C241.069 23.2275 243.489 23.2216 245.909 23.2216C248.946 23.2216 251.984 23.2437 255.022 23.2096C256.115 23.1972 256.887 23.6261 257.47 24.5213C260.05 28.4773 262.642 32.4261 265.229 36.3775C266.244 37.9281 267.262 39.4762 268.27 41.032C268.802 41.8538 269.552 42.2477 270.522 42.3079C271.367 42.3604 272.209 42.4709 273.053 42.5558C273.052 43.5863 273.052 44.6164 273.052 45.646ZM249.465 34.8067C250.764 34.8067 252.063 34.8076 253.363 34.8046C253.46 34.8042 253.59 34.8541 253.646 34.7457C253.699 34.6412 253.591 34.558 253.538 34.476C252.197 32.4325 250.853 30.392 249.516 28.3459C249.362 28.1095 249.283 28.0596 249.112 28.3417C247.868 30.3856 246.61 32.4206 245.359 34.459C245.162 34.7799 245.176 34.8055 245.567 34.8059C246.866 34.808 248.165 34.8067 249.465 34.8067Z" fill="#5F5F5F"/>
<path d="M184.199 39.7228C184.199 36.6791 184.207 33.7446 184.195 30.8106C184.192 29.9243 184.272 29.0346 184.138 28.1513C183.991 27.1814 183.531 26.7666 182.561 26.6676C181.705 26.5802 180.853 26.4556 179.997 26.3689C179.729 26.3416 179.638 26.2294 179.654 25.9759C179.706 25.1294 179.754 24.2823 179.798 23.4349C179.808 23.2471 179.883 23.1464 180.078 23.1494C180.181 23.1507 180.284 23.1464 180.387 23.1464C184.802 23.1464 189.217 23.146 193.632 23.1464C194.209 23.1464 194.21 23.1477 194.21 23.7191C194.211 24.4398 194.203 25.1609 194.213 25.8816C194.217 26.1496 194.131 26.2682 193.846 26.2973C193.067 26.3762 192.293 26.5072 191.513 26.5823C190.187 26.7099 189.695 27.2189 189.659 28.5575C189.655 28.6992 189.658 28.8409 189.658 28.9821C189.658 34.3497 189.658 39.7173 189.658 45.0849C189.658 45.6695 189.657 45.6707 189.062 45.6707C185.561 45.6707 182.059 45.6579 178.558 45.6776C177.534 45.6835 176.784 45.3085 176.16 44.4806C172.417 39.5176 168.644 34.5771 164.881 29.6294C164.798 29.5206 164.708 29.4174 164.612 29.3C164.522 29.4425 164.561 29.5735 164.561 29.696C164.559 33.0683 164.557 36.441 164.563 39.8133C164.563 40.1854 164.59 40.5596 164.636 40.9291C164.739 41.7442 165.296 42.208 166.205 42.301C167.061 42.3885 167.912 42.5135 168.768 42.5997C169.04 42.627 169.113 42.7495 169.111 42.9966C169.103 43.7689 169.094 44.5417 169.115 45.3132C169.124 45.6575 168.995 45.754 168.665 45.7522C166.464 45.7416 164.262 45.7467 162.061 45.7467C159.744 45.7467 157.427 45.7403 155.111 45.7531C154.75 45.7552 154.604 45.6558 154.616 45.2756C154.64 44.5297 154.63 43.7826 154.619 43.0362C154.615 42.7555 154.697 42.624 155.004 42.595C155.835 42.5165 156.661 42.3859 157.492 42.3044C158.63 42.1926 159.162 41.6059 159.17 40.3667C159.181 38.642 159.174 36.9172 159.174 35.192C159.174 33.0811 159.174 30.9702 159.174 28.8588C159.174 28.7299 159.177 28.6011 159.17 28.4726C159.101 27.2753 158.586 26.7658 157.403 26.6587C156.572 26.5836 155.745 26.4556 154.916 26.3608C154.705 26.3369 154.624 26.2354 154.624 26.0353C154.626 25.1985 154.626 24.3621 154.625 23.5253C154.624 23.3175 154.72 23.2164 154.93 23.2228C155.033 23.2262 155.136 23.2215 155.239 23.2215C160.13 23.2215 165.022 23.2215 169.913 23.2215C170.119 23.2215 170.325 23.219 170.531 23.2267C171.319 23.2548 171.946 23.5441 172.442 24.203C176.243 29.2509 180.064 34.2844 183.879 39.3222C183.962 39.4331 184.052 39.5389 184.199 39.7228Z" fill="#5F5F5F"/>
<path d="M208.358 45.6707C203.681 45.6707 199.819 45.6712 195.957 45.6703C195.404 45.6703 195.403 45.6686 195.402 45.116C195.402 44.3953 195.411 43.6742 195.398 42.9535C195.393 42.665 195.489 42.5523 195.79 42.5208C196.748 42.4205 197.706 42.3066 198.656 42.1547C199.352 42.0437 199.757 41.6106 199.867 40.9257C199.922 40.5844 199.951 40.2349 199.952 39.8888C199.958 36.1811 199.954 32.4739 199.959 28.7662C199.959 28.4419 199.926 28.1223 199.87 27.807C199.775 27.2638 199.449 26.9092 198.918 26.7496C198.211 26.5366 197.471 26.5422 196.747 26.4415C195.471 26.2644 195.739 26.529 195.711 25.3265C195.697 24.7474 195.716 24.168 195.706 23.5885C195.701 23.3291 195.79 23.1976 196.062 23.222C196.126 23.2279 196.19 23.222 196.255 23.222C203.669 23.2224 211.085 23.207 218.5 23.2326C221.155 23.242 223.756 23.6495 226.217 24.7052C228.801 25.8134 230.81 27.5343 231.856 30.217C232.531 31.9499 232.71 33.7502 232.541 35.5995C232.394 37.2155 231.96 38.7316 231.109 40.1171C230.06 41.8261 228.568 43.0414 226.783 43.9076C224.624 44.9556 222.319 45.4664 219.935 45.5871C215.806 45.7958 211.673 45.6025 208.358 45.6707ZM208.732 34.4828C208.732 36.5801 208.732 38.6774 208.732 40.7751C208.732 41.3179 208.734 41.32 209.256 41.32C211.546 41.3209 213.836 41.3243 216.127 41.317C216.666 41.3153 217.204 41.3085 217.743 41.2347C219.991 40.9283 221.313 39.7834 221.827 37.5752C222.276 35.6478 222.246 33.6977 221.919 31.754C221.736 30.6672 221.335 29.6734 220.504 28.9032C219.565 28.0323 218.399 27.7063 217.172 27.6828C214.522 27.6329 211.871 27.6627 209.221 27.6401C208.822 27.6367 208.722 27.7698 208.725 28.1517C208.741 30.2622 208.732 32.3728 208.732 34.4828Z" fill="#5F5F5F"/>
<path d="M16.4933 13.8169C17.0689 13.8177 16.9653 13.7435 17.0783 14.2645C18.3179 19.9764 19.5963 25.6794 21.0519 31.341C21.4376 32.8417 21.8639 34.3301 22.4993 35.7502C23.4632 37.9068 25.0975 39.1835 27.4371 39.5479C28.1045 39.652 28.7753 39.6985 29.4504 39.728C30.4177 39.7702 31.3846 39.7536 32.349 39.7062C33.4725 39.6507 34.5833 39.4946 35.6253 39.0235C36.8495 38.4696 37.7635 37.5863 38.4083 36.4176C39.0616 35.233 39.4823 33.9563 39.8382 32.6604C40.8538 28.9617 41.7759 25.2395 42.6127 21.4959C43.164 19.0291 43.702 16.5593 44.2384 14.0891C44.2849 13.8753 44.3699 13.8011 44.5926 13.8105C45.8202 13.8604 47.0475 13.9099 48.2674 14.0678C48.4069 14.0857 48.4501 14.1489 48.4419 14.2769C48.3937 15.0138 48.3476 15.7507 48.299 16.4877C48.2644 17.0117 48.2247 17.5357 48.1902 18.0597C48.1194 19.1362 48.0498 20.2133 47.9819 21.2903C47.935 22.0345 47.8941 22.7786 47.8458 23.5228C47.7805 24.5358 47.7101 25.5488 47.6436 26.5618C47.5966 27.2702 47.5535 27.979 47.5062 28.6873C47.4383 29.7071 47.3683 30.727 47.3005 31.7472C47.2548 32.4342 47.2117 33.1217 47.1657 33.8087C47.0974 34.8285 47.027 35.8483 46.9583 36.8682C46.9122 37.5552 46.8704 38.2426 46.8213 38.9296C46.7564 39.8359 46.6843 40.7414 46.6182 41.6478C46.5704 42.3062 46.5299 42.965 46.4808 43.6234C46.4163 44.4939 46.3459 45.3644 46.2794 46.2349C46.2324 46.8506 46.1889 47.4668 46.1407 48.0825C46.0746 48.9317 46.0059 49.7804 45.9376 50.6296C45.8774 51.3797 45.8177 52.1295 45.7571 52.8796C45.7302 53.212 45.6944 53.544 45.676 53.8768C45.6679 54.0228 45.606 54.0697 45.4678 54.0825C44.7897 54.1457 44.1134 54.2365 43.4341 54.2809C42.3003 54.3552 41.1648 54.4042 40.0302 54.4576C39.7034 54.4729 39.7046 54.4627 39.6231 54.1457C39.0471 51.9029 38.5115 49.649 37.752 47.4578C37.5357 46.8327 37.2826 46.2234 37.0006 45.6243C36.404 44.3578 35.4089 43.6494 34.0409 43.4118C32.6191 43.1651 31.1879 43.0981 29.7516 43.1651C28.7954 43.2095 27.8374 43.2795 26.8999 43.4975C25.7789 43.7583 24.9584 44.4086 24.4284 45.4263C23.8404 46.5545 23.4628 47.7625 23.0988 48.9744C22.5816 50.6961 22.1566 52.4427 21.7039 54.1819C21.645 54.4089 21.549 54.4742 21.325 54.464C20.2394 54.4145 19.1543 54.3637 18.0696 54.301C17.3177 54.2575 16.5697 54.1866 15.8234 54.0876C15.6599 54.0659 15.6147 53.9984 15.6028 53.844C15.5272 52.8677 15.4385 51.8922 15.3608 50.9159C15.2951 50.0949 15.2409 49.2735 15.1769 48.4525C15.0984 47.4408 15.0122 46.4295 14.9345 45.4173C14.8829 44.7448 14.8428 44.0715 14.7933 43.399C14.7284 42.514 14.658 41.6298 14.5936 40.7448C14.5441 40.0651 14.5014 39.3849 14.4532 38.7052C14.3875 37.7775 14.3175 36.8503 14.2535 35.923C14.2032 35.1933 14.1605 34.4632 14.1118 33.7336C14.0466 32.7564 13.9766 31.7792 13.9117 30.8016C13.8618 30.0506 13.8191 29.2992 13.77 28.5482C13.7052 27.5638 13.6361 26.5793 13.5708 25.5949C13.5362 25.0777 13.5068 24.5602 13.4731 24.043C13.4061 23.0159 13.3365 21.9888 13.2708 20.9617C13.2217 20.1894 13.1795 19.4166 13.13 18.6442C13.0651 17.6312 12.996 16.6182 12.9294 15.6052C12.9 15.1589 12.8744 14.7121 12.8424 14.2662C12.8321 14.1258 12.8953 14.081 13.0263 14.0686C13.5422 14.0196 14.0559 13.9483 14.5723 13.912C15.2166 13.8655 15.8631 13.8463 16.4933 13.8169Z" fill="#5F5F5F"/>
</g>
<defs>
<clipPath id="clip0_12_591">
<rect width="272.104" height="66.54" fill="white" transform="translate(0.948242 0.730286)"/>
</clipPath>
</defs>
</svg>
